<?xml version="1.0" standalone="no"?>
<!DOCTYPE svg PUBLIC "-//W3C//DTD SVG 20010904//EN"
 "http://www.w3.org/TR/2001/REC-SVG-20010904/DTD/svg10.dtd">
<svg version="1.0" xmlns="http://www.w3.org/2000/svg"
 width="1786.000000pt" height="1786.000000pt" viewBox="0 0 1786.000000 1786.000000"
 preserveAspectRatio="xMidYMid meet">
<metadata>
Created by potrace 1.14, written by Peter Selinger 2001-2017
</metadata>
<g transform="translate(0.000000,1786.000000) scale(0.100000,-0.100000)"
fill="#000000" stroke="none">
<path d="M8578 17855 c-1 -1 -64 -6 -138 -9 -74 -4 -153 -9 -175 -11 -22 -2
-74 -6 -115 -9 -41 -4 -88 -8 -105 -10 -16 -2 -59 -7 -95 -10 -36 -4 -75 -8
-85 -10 -11 -2 -47 -7 -80 -11 -101 -11 -128 -15 -185 -25 -30 -5 -73 -11 -95
-15 -22 -3 -76 -12 -120 -20 -44 -8 -96 -17 -115 -20 -19 -3 -42 -8 -50 -10
-8 -2 -28 -7 -45 -9 -138 -24 -496 -112 -743 -182 -164 -47 -682 -224 -759
-260 -17 -7 -33 -14 -37 -14 -7 0 -311 -129 -401 -170 -247 -113 -622 -307
-789 -409 -37 -22 -70 -41 -72 -41 -4 0 -236 -142 -249 -153 -5 -4 -64 -43
-130 -86 -173 -112 -510 -356 -621 -450 -16 -14 -45 -37 -64 -51 -18 -14 -38
-30 -44 -35 -6 -6 -54 -46 -106 -90 -52 -44 -111 -94 -130 -111 -198 -179
-278 -254 -399 -375 -138 -139 -248 -255 -341 -359 -41 -46 -82 -91 -90 -100
-8 -8 -35 -40 -60 -70 -64 -77 -84 -101 -95 -114 -10 -11 -74 -90 -105 -130
-8 -10 -22 -27 -31 -36 -9 -9 -30 -38 -47 -63 -18 -25 -38 -52 -44 -59 -7 -7
-24 -29 -38 -48 -13 -19 -28 -39 -33 -45 -46 -54 -333 -476 -403 -592 -98
-165 -145 -243 -161 -273 -22 -38 -78 -138 -105 -185 -44 -76 -254 -505 -313
-640 -179 -404 -355 -904 -461 -1305 -18 -68 -95 -380 -98 -400 -8 -43 -16
-82 -36 -180 -22 -108 -28 -140 -36 -190 -2 -19 -7 -46 -10 -60 -10 -55 -12
-67 -18 -110 -3 -25 -8 -56 -11 -70 -2 -14 -9 -63 -15 -110 -6 -47 -13 -96
-15 -110 -2 -14 -6 -54 -10 -90 -4 -36 -9 -81 -11 -100 -8 -66 -19 -211 -32
-415 -15 -242 -7 -950 13 -1150 2 -22 7 -71 10 -110 3 -38 7 -88 10 -110 3
-22 7 -62 10 -90 8 -72 21 -183 29 -235 3 -19 10 -71 17 -115 6 -44 13 -89 15
-100 2 -10 11 -60 19 -110 9 -49 18 -103 21 -120 17 -97 91 -425 130 -575 25
-96 47 -179 48 -185 2 -5 5 -17 8 -25 3 -8 16 -49 28 -90 46 -157 166 -521
190 -575 5 -11 29 -72 53 -135 48 -125 112 -279 158 -378 16 -35 29 -65 29
-67 0 -19 234 -481 327 -645 11 -19 35 -62 53 -95 89 -162 337 -553 447 -706
110 -152 335 -449 363 -479 8 -8 29 -33 45 -54 17 -21 35 -44 40 -50 6 -6 37
-43 70 -81 33 -39 64 -75 70 -81 5 -6 39 -44 75 -85 175 -198 462 -484 675
-674 43 -38 89 -80 102 -92 13 -11 41 -35 63 -53 21 -17 49 -41 62 -52 180
-159 801 -618 836 -618 6 0 12 -4 14 -8 2 -7 81 -58 244 -159 251 -156 663
-374 959 -508 102 -46 438 -186 485 -202 25 -8 59 -21 75 -28 94 -42 525 -181
770 -249 266 -73 569 -140 870 -191 17 -3 39 -7 50 -9 11 -2 42 -7 68 -10 27
-4 59 -9 70 -12 12 -2 42 -6 67 -9 25 -3 56 -7 70 -10 14 -2 52 -6 85 -10 33
-3 74 -8 90 -10 17 -2 55 -6 85 -9 30 -3 81 -8 112 -11 60 -6 106 -10 318 -22
243 -15 937 -8 1140 12 25 2 77 6 115 10 39 3 88 8 110 10 22 3 60 7 85 10 25
2 86 9 135 15 50 7 101 13 115 15 176 22 591 99 809 151 36 9 73 17 81 19 8 1
69 17 135 35 66 17 127 33 135 35 31 8 218 64 310 94 250 80 374 124 602 215
92 36 172 66 178 66 5 0 10 5 10 10 0 6 5 10 12 10 30 0 507 226 723 343 207
112 405 228 566 332 55 36 104 65 109 65 4 0 10 3 12 8 2 4 50 39 108 77 182
122 463 331 614 456 88 73 232 195 242 204 6 5 46 42 90 80 170 153 434 411
564 554 41 45 86 95 100 110 48 52 115 128 160 181 25 29 50 58 55 64 6 6 59
72 118 146 59 74 111 140 117 147 75 93 254 344 381 538 91 138 122 188 196
310 7 11 15 27 19 35 4 8 13 22 19 30 7 8 27 42 45 75 18 33 45 80 59 105 80
143 265 509 334 661 81 179 248 590 261 644 2 6 6 17 10 25 17 41 128 381 160
495 21 72 46 159 57 195 16 55 71 278 84 337 2 10 18 83 35 163 17 80 33 160
36 179 3 18 8 43 10 55 13 63 47 280 59 366 6 46 14 106 20 150 2 14 7 57 10
95 4 39 8 81 10 95 8 52 23 250 33 430 14 264 7 935 -12 1120 -2 19 -7 70 -10
112 -7 81 -13 144 -21 213 -3 22 -7 63 -10 90 -3 28 -7 64 -10 80 -3 17 -7 53
-10 80 -3 28 -10 73 -15 100 -6 28 -12 64 -14 80 -8 66 -29 179 -62 345 -43
215 -42 208 -48 228 -3 9 -7 28 -10 42 -5 30 -54 222 -95 370 -109 401 -283
877 -471 1295 -28 63 -245 502 -264 535 -8 14 -52 90 -96 170 -67 118 -154
264 -243 404 -71 112 -172 262 -178 264 -5 2 -9 10 -9 18 0 8 -4 14 -8 14 -4
0 -15 13 -25 29 -18 31 -147 213 -156 221 -4 3 -26 32 -50 65 -25 33 -47 62
-50 65 -3 3 -28 34 -56 70 -27 36 -52 67 -55 70 -3 3 -37 43 -75 90 -38 47
-72 87 -75 90 -3 3 -30 34 -60 70 -30 35 -68 78 -85 96 -16 17 -75 80 -130
139 -163 176 -394 402 -550 540 -44 39 -84 75 -90 81 -5 5 -39 35 -75 65 -36
29 -67 56 -70 59 -18 20 -319 255 -440 343 -80 59 -149 110 -155 115 -54 44
-599 391 -648 412 -12 6 -35 19 -52 29 -29 19 -59 36 -190 108 -118 64 -626
313 -640 313 -2 0 -32 13 -67 29 -264 120 -873 335 -1148 405 -14 4 -86 23
-160 42 -74 20 -142 37 -151 39 -8 2 -44 10 -80 19 -86 21 -414 86 -464 92
-22 3 -47 7 -55 9 -8 3 -33 7 -55 10 -22 3 -65 10 -95 15 -30 5 -75 12 -99 15
-23 3 -55 7 -70 9 -14 3 -55 8 -91 11 -36 4 -72 8 -80 10 -8 2 -49 6 -90 9
-41 4 -88 9 -105 11 -16 2 -77 6 -135 10 -58 4 -125 9 -150 11 -55 5 -857 14
-862 9z"/>
</g>
</svg>
